<?xml version="1.0" standalone="no"?>
<!DOCTYPE svg PUBLIC "-//W3C//DTD SVG 20010904//EN"
 "http://www.w3.org/TR/2001/REC-SVG-20010904/DTD/svg10.dtd">
<svg version="1.0" xmlns="http://www.w3.org/2000/svg"
 width="700.000000pt" height="700.000000pt" viewBox="0 0 700.000000 700.000000"
 preserveAspectRatio="xMidYMid meet">
<metadata>
Created by potrace 1.14, written by Peter Selinger 2001-2017
</metadata>
<g transform="translate(0.000000,700.000000) scale(0.100000,-0.100000)"
fill="#000000" stroke="none">
<path d="M3408 6705 c-1 -1 -25 -5 -53 -9 -166 -19 -345 -113 -479 -250 -118
-120 -205 -278 -231 -416 -1 -8 -6 -35 -11 -60 -4 -25 -8 -524 -8 -1110 l-1
-1065 -645 -5 c-642 -5 -645 -5 -709 -28 -197 -71 -351 -249 -386 -447 -4 -22
-9 -188 -10 -370 l-2 -330 -72 -285 c-40 -157 -74 -294 -77 -305 -2 -11 -26
-110 -55 -220 -28 -110 -52 -207 -54 -215 -2 -8 -13 -53 -24 -100 -12 -47 -24
-93 -26 -103 -2 -10 -27 -109 -55 -220 -27 -112 -52 -235 -55 -273 -16 -271
191 -538 457 -589 61 -12 479 -14 2623 -12 l2550 2 80 27 c183 63 332 220 379
401 25 94 14 178 -57 457 -36 140 -68 266 -71 280 -3 14 -30 124 -61 244 -30
121 -57 229 -60 240 -2 12 -41 165 -86 341 l-82 320 -2 325 c-1 179 -5 349 -9
378 -29 198 -186 381 -387 454 -64 23 -64 23 -706 26 -354 1 -644 6 -644 10
-1 4 -3 491 -4 1082 -2 591 -5 1084 -8 1095 -3 11 -10 41 -16 67 -74 323 -353
588 -686 653 -33 7 -251 15 -257 10z m167 -590 c52 -11 104 -43 148 -95 71
-83 67 -18 67 -1182 l0 -1048 -290 0 -290 0 0 1043 c0 1192 -5 1113 84 1204
76 78 161 102 281 78z m1966 -2960 c0 -30 0 -75 0 -100 0 -25 0 -132 0 -238
l-1 -192 -2041 0 -2041 0 0 220 c1 121 1 253 1 292 l1 73 2040 -1 2040 0 1
-54z m129 -1121 c6 -7 103 -384 135 -524 2 -8 20 -80 40 -160 20 -80 38 -152
40 -160 2 -8 18 -71 35 -140 18 -69 34 -136 36 -150 l5 -26 -353 1 -353 0 -5
330 c-5 310 -6 333 -26 376 -85 183 -324 226 -469 85 -85 -83 -88 -102 -88
-473 -1 -275 -3 -313 -16 -317 -14 -3 -816 -1 -848 3 -10 1 -13 72 -13 320 0
353 -2 370 -64 445 -19 23 -58 55 -87 71 -48 26 -63 30 -139 29 -72 0 -93 -4
-135 -26 -57 -29 -95 -69 -128 -131 -21 -41 -22 -53 -25 -374 -2 -250 -6 -333
-15 -334 -7 -1 -202 -2 -435 -3 -416 -1 -423 -1 -427 19 -2 11 -3 153 -3 316
1 251 -2 303 -16 346 -22 65 -75 127 -140 160 -43 23 -64 27 -136 27 -99 1
-149 -20 -212 -86 -73 -78 -78 -107 -78 -466 l0 -317 -352 0 c-346 0 -353 0
-353 20 0 11 63 273 140 582 137 549 141 562 165 565 64 8 4312 0 4320 -8z"/>
</g>
</svg>
