<svg width="210" height="17" viewBox="0 0 210 17" fill="none" xmlns="http://www.w3.org/2000/svg">
<path d="M7.33344 7.33332H8.66678V2.66666C8.66678 2.47777 8.60278 2.31932 8.47478 2.19132C8.34678 2.06332 8.18855 1.99955 8.00011 1.99999C7.81122 1.99999 7.65278 2.06399 7.52478 2.19199C7.39678 2.31999 7.333 2.47821 7.33344 2.66666V7.33332ZM3.33344 9.99999H12.6668V8.66666H3.33344V9.99999ZM2.36678 14H4.00011V12.6667C4.00011 12.4778 4.06411 12.3193 4.19211 12.1913C4.32011 12.0633 4.47833 11.9995 4.66678 12C4.85567 12 5.01411 12.064 5.14211 12.192C5.27011 12.32 5.33389 12.4782 5.33344 12.6667V14H7.33344V12.6667C7.33344 12.4778 7.39744 12.3193 7.52544 12.1913C7.65344 12.0633 7.81167 11.9995 8.00011 12C8.189 12 8.34744 12.064 8.47544 12.192C8.60344 12.32 8.66722 12.4782 8.66678 12.6667V14H10.6668V12.6667C10.6668 12.4778 10.7308 12.3193 10.8588 12.1913C10.9868 12.0633 11.145 11.9995 11.3334 12C11.5223 12 11.6808 12.064 11.8088 12.192C11.9368 12.32 12.0006 12.4782 12.0001 12.6667V14H13.6334L12.9668 11.3333H3.03344L2.36678 14ZM13.6334 15.3333H2.36678C1.93344 15.3333 1.58344 15.1611 1.31678 14.8167C1.05011 14.4722 0.972332 14.0889 1.08344 13.6667L2.00011 9.99999V8.66666C2.00011 8.29999 2.13078 7.98599 2.39211 7.72466C2.65344 7.46332 2.96722 7.33288 3.33344 7.33332H6.00011V2.66666C6.00011 2.1111 6.19455 1.63888 6.58344 1.24999C6.97233 0.861101 7.44455 0.666656 8.00011 0.666656C8.55567 0.666656 9.02789 0.861101 9.41678 1.24999C9.80567 1.63888 10.0001 2.1111 10.0001 2.66666V7.33332H12.6668C13.0334 7.33332 13.3474 7.46399 13.6088 7.72532C13.8701 7.98666 14.0006 8.30043 14.0001 8.66666V9.99999L14.9168 13.6667C15.0612 14.0889 14.9972 14.4722 14.7248 14.8167C14.4523 15.1611 14.0886 15.3333 13.6334 15.3333Z" fill="#BA64E3"/>
<path d="M34.72 4.768V16H31.984V11.376H27.728V16H24.992V4.768H27.728V9.168H31.984V4.768H34.72ZM113.135 6.976C114.18 6.976 115.012 7.31733 115.631 8C116.26 8.672 116.575 9.6 116.575 10.784V16H113.855V11.152C113.855 10.5547 113.7 10.0907 113.391 9.76C113.082 9.42933 112.666 9.264 112.143 9.264C111.62 9.264 111.204 9.42933 110.895 9.76C110.586 10.0907 110.431 10.5547 110.431 11.152V16H107.695V7.072H110.431V8.256C110.708 7.86133 111.082 7.552 111.551 7.328C112.02 7.09333 112.548 6.976 113.135 6.976ZM126.892 11.392C126.892 11.648 126.876 11.9147 126.844 12.192H120.652C120.695 12.7467 120.871 13.1733 121.18 13.472C121.5 13.76 121.89 13.904 122.348 13.904C123.031 13.904 123.506 13.616 123.772 13.04H126.684C126.535 13.6267 126.263 14.1547 125.868 14.624C125.484 15.0933 124.999 15.4613 124.412 15.728C123.826 15.9947 123.17 16.128 122.444 16.128C121.57 16.128 120.791 15.9413 120.108 15.568C119.426 15.1947 118.892 14.6613 118.508 13.968C118.124 13.2747 117.932 12.464 117.932 11.536C117.932 10.608 118.119 9.79733 118.492 9.104C118.876 8.41067 119.41 7.87733 120.092 7.504C120.775 7.13067 121.559 6.944 122.444 6.944C123.308 6.944 124.076 7.12533 124.748 7.488C125.42 7.85067 125.943 8.368 126.316 9.04C126.7 9.712 126.892 10.496 126.892 11.392ZM124.092 10.672C124.092 10.2027 123.932 9.82933 123.612 9.552C123.292 9.27467 122.892 9.136 122.412 9.136C121.954 9.136 121.564 9.26933 121.244 9.536C120.935 9.80267 120.743 10.1813 120.668 10.672H124.092Z" fill="#BA64E3"/>
<path d="M40.7591 16.128C39.8845 16.128 39.0951 15.9413 38.3911 15.568C37.6978 15.1947 37.1485 14.6613 36.7431 13.968C36.3485 13.2747 36.1511 12.464 36.1511 11.536C36.1511 10.6187 36.3538 9.81333 36.7591 9.12C37.1645 8.416 37.7191 7.87733 38.4231 7.504C39.1271 7.13067 39.9165 6.944 40.7911 6.944C41.6658 6.944 42.4551 7.13067 43.1591 7.504C43.8631 7.87733 44.4178 8.416 44.8231 9.12C45.2285 9.81333 45.4311 10.6187 45.4311 11.536C45.4311 12.4533 45.2231 13.264 44.8071 13.968C44.4018 14.6613 43.8418 15.1947 43.1271 15.568C42.4231 15.9413 41.6338 16.128 40.7591 16.128ZM40.7591 13.76C41.2818 13.76 41.7245 13.568 42.0871 13.184C42.4605 12.8 42.6471 12.2507 42.6471 11.536C42.6471 10.8213 42.4658 10.272 42.1031 9.888C41.7511 9.504 41.3138 9.312 40.7911 9.312C40.2578 9.312 39.8151 9.504 39.4631 9.888C39.1111 10.2613 38.9351 10.8107 38.9351 11.536C38.9351 12.2507 39.1058 12.8 39.4471 13.184C39.7991 13.568 40.2365 13.76 40.7591 13.76ZM46.3386 11.52C46.3386 10.6027 46.5093 9.79733 46.8506 9.104C47.2026 8.41067 47.6773 7.87733 48.2746 7.504C48.872 7.13067 49.5386 6.944 50.2746 6.944C50.8613 6.944 51.3946 7.06667 51.8746 7.312C52.3653 7.55733 52.7493 7.888 53.0266 8.304V4.16H55.7626V16H53.0266V14.72C52.7706 15.1467 52.4026 15.488 51.9226 15.744C51.4533 16 50.904 16.128 50.2746 16.128C49.5386 16.128 48.872 15.9413 48.2746 15.568C47.6773 15.184 47.2026 14.6453 46.8506 13.952C46.5093 13.248 46.3386 12.4373 46.3386 11.52ZM53.0266 11.536C53.0266 10.8533 52.8346 10.3147 52.4506 9.92C52.0773 9.52533 51.6186 9.328 51.0746 9.328C50.5306 9.328 50.0666 9.52533 49.6826 9.92C49.3093 10.304 49.1226 10.8373 49.1226 11.52C49.1226 12.2027 49.3093 12.7467 49.6826 13.152C50.0666 13.5467 50.5306 13.744 51.0746 13.744C51.6186 13.744 52.0773 13.5467 52.4506 13.152C52.8346 12.7573 53.0266 12.2187 53.0266 11.536ZM59.118 6.144C58.638 6.144 58.2433 6.00533 57.934 5.728C57.6353 5.44 57.486 5.088 57.486 4.672C57.486 4.24533 57.6353 3.89333 57.934 3.616C58.2433 3.328 58.638 3.184 59.118 3.184C59.5873 3.184 59.9713 3.328 60.27 3.616C60.5793 3.89333 60.734 4.24533 60.734 4.672C60.734 5.088 60.5793 5.44 60.27 5.728C59.9713 6.00533 59.5873 6.144 59.118 6.144ZM60.478 7.072V16H57.742V7.072H60.478ZM67.9008 6.976C68.9461 6.976 69.7781 7.31733 70.3968 8C71.0261 8.672 71.3408 9.6 71.3408 10.784V16H68.6208V11.152C68.6208 10.5547 68.4661 10.0907 68.1568 9.76C67.8474 9.42933 67.4314 9.264 66.9088 9.264C66.3861 9.264 65.9701 9.42933 65.6608 9.76C65.3514 10.0907 65.1968 10.5547 65.1968 11.152V16H62.4608V7.072H65.1968V8.256C65.4741 7.86133 65.8474 7.552 66.3168 7.328C66.7861 7.09333 67.3141 6.976 67.9008 6.976ZM77.306 16.128C76.4313 16.128 75.642 15.9413 74.938 15.568C74.2447 15.1947 73.6953 14.6613 73.29 13.968C72.8953 13.2747 72.698 12.464 72.698 11.536C72.698 10.6187 72.9007 9.81333 73.306 9.12C73.7113 8.416 74.266 7.87733 74.97 7.504C75.674 7.13067 76.4633 6.944 77.338 6.944C78.2127 6.944 79.002 7.13067 79.706 7.504C80.41 7.87733 80.9647 8.416 81.37 9.12C81.7753 9.81333 81.978 10.6187 81.978 11.536C81.978 12.4533 81.77 13.264 81.354 13.968C80.9487 14.6613 80.3887 15.1947 79.674 15.568C78.97 15.9413 78.1807 16.128 77.306 16.128ZM77.306 13.76C77.8287 13.76 78.2713 13.568 78.634 13.184C79.0073 12.8 79.194 12.2507 79.194 11.536C79.194 10.8213 79.0127 10.272 78.65 9.888C78.298 9.504 77.8607 9.312 77.338 9.312C76.8047 9.312 76.362 9.504 76.01 9.888C75.658 10.2613 75.482 10.8107 75.482 11.536C75.482 12.2507 75.6527 12.8 75.994 13.184C76.346 13.568 76.7833 13.76 77.306 13.76ZM87.4455 13.44L89.3815 7.072H92.2935L89.1255 16H85.7495L82.5815 7.072H85.5095L87.4455 13.44ZM92.9011 11.52C92.9011 10.6027 93.0718 9.79733 93.4131 9.104C93.7651 8.41067 94.2398 7.87733 94.8371 7.504C95.4345 7.13067 96.1011 6.944 96.8371 6.944C97.4665 6.944 98.0158 7.072 98.4851 7.328C98.9651 7.584 99.3331 7.92 99.5891 8.336V7.072H102.325V16H99.5891V14.736C99.3225 15.152 98.9491 15.488 98.4691 15.744C97.9998 16 97.4505 16.128 96.8211 16.128C96.0958 16.128 95.4345 15.9413 94.8371 15.568C94.2398 15.184 93.7651 14.6453 93.4131 13.952C93.0718 13.248 92.9011 12.4373 92.9011 11.52ZM99.5891 11.536C99.5891 10.8533 99.3971 10.3147 99.0131 9.92C98.6398 9.52533 98.1811 9.328 97.6371 9.328C97.0931 9.328 96.6291 9.52533 96.2451 9.92C95.8718 10.304 95.6851 10.8373 95.6851 11.52C95.6851 12.2027 95.8718 12.7467 96.2451 13.152C96.6291 13.5467 97.0931 13.744 97.6371 13.744C98.1811 13.744 98.6398 13.5467 99.0131 13.152C99.3971 12.7573 99.5891 12.2187 99.5891 11.536ZM99.7971 4.848L95.9411 6.464V4.576L99.7971 2.72V4.848ZM139.728 6.976C140.837 6.976 141.717 7.312 142.368 7.984C143.029 8.656 143.36 9.58933 143.36 10.784V16H140.64V11.152C140.64 10.576 140.485 10.1333 140.176 9.824C139.877 9.504 139.461 9.344 138.928 9.344C138.394 9.344 137.973 9.504 137.664 9.824C137.365 10.1333 137.216 10.576 137.216 11.152V16H134.496V11.152C134.496 10.576 134.341 10.1333 134.032 9.824C133.733 9.504 133.317 9.344 132.784 9.344C132.25 9.344 131.829 9.504 131.52 9.824C131.221 10.1333 131.072 10.576 131.072 11.152V16H128.336V7.072H131.072V8.192C131.349 7.81867 131.712 7.52533 132.16 7.312C132.608 7.088 133.114 6.976 133.68 6.976C134.352 6.976 134.949 7.12 135.472 7.408C136.005 7.696 136.421 8.10667 136.72 8.64C137.029 8.14933 137.45 7.74933 137.984 7.44C138.517 7.13067 139.098 6.976 139.728 6.976ZM144.729 11.52C144.729 10.6027 144.9 9.79733 145.241 9.104C145.593 8.41067 146.068 7.87733 146.665 7.504C147.263 7.13067 147.929 6.944 148.665 6.944C149.295 6.944 149.844 7.072 150.313 7.328C150.793 7.584 151.161 7.92 151.417 8.336V7.072H154.153V16H151.417V14.736C151.151 15.152 150.777 15.488 150.297 15.744C149.828 16 149.279 16.128 148.649 16.128C147.924 16.128 147.263 15.9413 146.665 15.568C146.068 15.184 145.593 14.6453 145.241 13.952C144.9 13.248 144.729 12.4373 144.729 11.52ZM151.417 11.536C151.417 10.8533 151.225 10.3147 150.841 9.92C150.468 9.52533 150.009 9.328 149.465 9.328C148.921 9.328 148.457 9.52533 148.073 9.92C147.7 10.304 147.513 10.8373 147.513 11.52C147.513 12.2027 147.7 12.7467 148.073 13.152C148.457 13.5467 148.921 13.744 149.465 13.744C150.009 13.744 150.468 13.5467 150.841 13.152C151.225 12.7573 151.417 12.2187 151.417 11.536ZM161.573 6.976C162.618 6.976 163.45 7.31733 164.069 8C164.698 8.672 165.013 9.6 165.013 10.784V16H162.293V11.152C162.293 10.5547 162.138 10.0907 161.829 9.76C161.519 9.42933 161.103 9.264 160.581 9.264C160.058 9.264 159.642 9.42933 159.333 9.76C159.023 10.0907 158.869 10.5547 158.869 11.152V16H156.133V7.072H158.869V8.256C159.146 7.86133 159.519 7.552 159.989 7.328C160.458 7.09333 160.986 6.976 161.573 6.976ZM169.474 13.744H173.346V16H166.418V13.824L170.13 9.328H166.45V7.072H173.266V9.248L169.474 13.744ZM172.434 5.2L169.954 6.464L167.474 5.2V3.312L169.954 4.704L172.434 3.312V5.2ZM183.267 11.392C183.267 11.648 183.251 11.9147 183.219 12.192H177.027C177.07 12.7467 177.246 13.1733 177.555 13.472C177.875 13.76 178.265 13.904 178.723 13.904C179.406 13.904 179.881 13.616 180.147 13.04H183.059C182.91 13.6267 182.638 14.1547 182.243 14.624C181.859 15.0933 181.374 15.4613 180.787 15.728C180.201 15.9947 179.545 16.128 178.819 16.128C177.945 16.128 177.166 15.9413 176.483 15.568C175.801 15.1947 175.267 14.6613 174.883 13.968C174.499 13.2747 174.307 12.464 174.307 11.536C174.307 10.608 174.494 9.79733 174.867 9.104C175.251 8.41067 175.785 7.87733 176.467 7.504C177.15 7.13067 177.934 6.944 178.819 6.944C179.683 6.944 180.451 7.12533 181.123 7.488C181.795 7.85067 182.318 8.368 182.691 9.04C183.075 9.712 183.267 10.496 183.267 11.392ZM180.467 10.672C180.467 10.2027 180.307 9.82933 179.987 9.552C179.667 9.27467 179.267 9.136 178.787 9.136C178.329 9.136 177.939 9.26933 177.619 9.536C177.31 9.80267 177.118 10.1813 177.043 10.672H180.467ZM187.447 4.16V16H184.711V4.16H187.447ZM194.886 16L192.166 12.256V16H189.43V4.16H192.166V10.704L194.87 7.072H198.246L194.534 11.552L198.278 16H194.886ZM198.776 11.52C198.776 10.6027 198.947 9.79733 199.288 9.104C199.64 8.41067 200.115 7.87733 200.712 7.504C201.309 7.13067 201.976 6.944 202.712 6.944C203.341 6.944 203.891 7.072 204.36 7.328C204.84 7.584 205.208 7.92 205.464 8.336V7.072H208.2V16H205.464V14.736C205.197 15.152 204.824 15.488 204.344 15.744C203.875 16 203.325 16.128 202.696 16.128C201.971 16.128 201.309 15.9413 200.712 15.568C200.115 15.184 199.64 14.6453 199.288 13.952C198.947 13.248 198.776 12.4373 198.776 11.52ZM205.464 11.536C205.464 10.8533 205.272 10.3147 204.888 9.92C204.515 9.52533 204.056 9.328 203.512 9.328C202.968 9.328 202.504 9.52533 202.12 9.92C201.747 10.304 201.56 10.8373 201.56 11.52C201.56 12.2027 201.747 12.7467 202.12 13.152C202.504 13.5467 202.968 13.744 203.512 13.744C204.056 13.744 204.515 13.5467 204.888 13.152C205.272 12.7573 205.464 12.2187 205.464 11.536Z" fill="#1A1C17"/>
</svg>
