<svg width="486" height="25" viewBox="0 0 486 25" fill="none" xmlns="http://www.w3.org/2000/svg">
<path d="M11 11H13V4C13 3.71667 12.904 3.479 12.712 3.287C12.52 3.095 12.2827 2.99933 12 3C11.7167 3 11.479 3.096 11.287 3.288C11.095 3.48 10.9994 3.71733 11 4V11ZM5.00004 15H19V13H5.00004V15ZM3.55004 21H6.00004V19C6.00004 18.7167 6.09604 18.479 6.28804 18.287C6.48004 18.095 6.71738 17.9993 7.00004 18C7.28338 18 7.52104 18.096 7.71304 18.288C7.90504 18.48 8.00071 18.7173 8.00004 19V21H11V19C11 18.7167 11.096 18.479 11.288 18.287C11.48 18.095 11.7174 17.9993 12 18C12.2834 18 12.521 18.096 12.713 18.288C12.905 18.48 13.0007 18.7173 13 19V21H16V19C16 18.7167 16.096 18.479 16.288 18.287C16.48 18.095 16.7174 17.9993 17 18C17.2834 18 17.521 18.096 17.713 18.288C17.905 18.48 18.0007 18.7173 18 19V21H20.45L19.45 17H4.55004L3.55004 21ZM20.45 23H3.55004C2.90004 23 2.37504 22.7417 1.97504 22.225C1.57504 21.7083 1.45838 21.1333 1.62504 20.5L3.00004 15V13C3.00004 12.45 3.19604 11.979 3.58804 11.587C3.98004 11.195 4.45071 10.9993 5.00004 11H9.00004V4C9.00004 3.16667 9.29171 2.45833 9.87504 1.875C10.4584 1.29167 11.1667 1 12 1C12.8334 1 13.5417 1.29167 14.125 1.875C14.7084 2.45833 15 3.16667 15 4V11H19C19.55 11 20.021 11.196 20.413 11.588C20.805 11.98 21.0007 12.4507 21 13V15L22.375 20.5C22.5917 21.1333 22.4957 21.7083 22.087 22.225C21.6784 22.7417 21.1327 23 20.45 23Z" fill="#BA64E3"/>
<path d="M48.08 7.152V24H43.976V17.064H37.592V24H33.488V7.152H37.592V13.752H43.976V7.152H48.08ZM165.703 10.464C167.271 10.464 168.519 10.976 169.447 12C170.391 13.008 170.863 14.4 170.863 16.176V24H166.783V16.728C166.783 15.832 166.551 15.136 166.087 14.64C165.623 14.144 164.999 13.896 164.215 13.896C163.431 13.896 162.807 14.144 162.343 14.64C161.879 15.136 161.647 15.832 161.647 16.728V24H157.543V10.608H161.647V12.384C162.063 11.792 162.623 11.328 163.327 10.992C164.031 10.64 164.823 10.464 165.703 10.464ZM186.339 17.088C186.339 17.472 186.315 17.872 186.267 18.288H176.979C177.043 19.12 177.307 19.76 177.771 20.208C178.251 20.64 178.835 20.856 179.523 20.856C180.547 20.856 181.259 20.424 181.659 19.56H186.027C185.803 20.44 185.395 21.232 184.803 21.936C184.227 22.64 183.499 23.192 182.619 23.592C181.739 23.992 180.755 24.192 179.667 24.192C178.355 24.192 177.187 23.912 176.163 23.352C175.139 22.792 174.339 21.992 173.763 20.952C173.187 19.912 172.899 18.696 172.899 17.304C172.899 15.912 173.179 14.696 173.739 13.656C174.315 12.616 175.115 11.816 176.139 11.256C177.163 10.696 178.339 10.416 179.667 10.416C180.963 10.416 182.115 10.688 183.123 11.232C184.131 11.776 184.915 12.552 185.475 13.56C186.051 14.568 186.339 15.744 186.339 17.088ZM182.139 16.008C182.139 15.304 181.899 14.744 181.419 14.328C180.939 13.912 180.339 13.704 179.619 13.704C178.931 13.704 178.347 13.904 177.867 14.304C177.403 14.704 177.115 15.272 177.003 16.008H182.139Z" fill="#BA64E3"/>
<path d="M57.1387 24.192C55.8267 24.192 54.6427 23.912 53.5867 23.352C52.5467 22.792 51.7227 21.992 51.1147 20.952C50.5227 19.912 50.2267 18.696 50.2267 17.304C50.2267 15.928 50.5307 14.72 51.1387 13.68C51.7467 12.624 52.5787 11.816 53.6347 11.256C54.6907 10.696 55.8747 10.416 57.1867 10.416C58.4987 10.416 59.6827 10.696 60.7387 11.256C61.7947 11.816 62.6267 12.624 63.2347 13.68C63.8427 14.72 64.1467 15.928 64.1467 17.304C64.1467 18.68 63.8347 19.896 63.2107 20.952C62.6027 21.992 61.7627 22.792 60.6907 23.352C59.6347 23.912 58.4507 24.192 57.1387 24.192ZM57.1387 20.64C57.9227 20.64 58.5867 20.352 59.1307 19.776C59.6907 19.2 59.9707 18.376 59.9707 17.304C59.9707 16.232 59.6987 15.408 59.1547 14.832C58.6267 14.256 57.9707 13.968 57.1867 13.968C56.3867 13.968 55.7227 14.256 55.1947 14.832C54.6667 15.392 54.4027 16.216 54.4027 17.304C54.4027 18.376 54.6587 19.2 55.1707 19.776C55.6987 20.352 56.3547 20.64 57.1387 20.64ZM65.5079 17.28C65.5079 15.904 65.7639 14.696 66.2759 13.656C66.8039 12.616 67.5159 11.816 68.4119 11.256C69.3079 10.696 70.3079 10.416 71.4119 10.416C72.2919 10.416 73.0919 10.6 73.8119 10.968C74.5479 11.336 75.1239 11.832 75.5399 12.456V6.24H79.6439V24H75.5399V22.08C75.1559 22.72 74.6039 23.232 73.8839 23.616C73.1799 24 72.3559 24.192 71.4119 24.192C70.3079 24.192 69.3079 23.912 68.4119 23.352C67.5159 22.776 66.8039 21.968 66.2759 20.928C65.7639 19.872 65.5079 18.656 65.5079 17.28ZM75.5399 17.304C75.5399 16.28 75.2519 15.472 74.6759 14.88C74.1159 14.288 73.4279 13.992 72.6119 13.992C71.7959 13.992 71.0999 14.288 70.5239 14.88C69.9639 15.456 69.6839 16.256 69.6839 17.28C69.6839 18.304 69.9639 19.12 70.5239 19.728C71.0999 20.32 71.7959 20.616 72.6119 20.616C73.4279 20.616 74.1159 20.32 74.6759 19.728C75.2519 19.136 75.5399 18.328 75.5399 17.304ZM84.677 9.216C83.957 9.216 83.365 9.008 82.901 8.592C82.453 8.16 82.229 7.632 82.229 7.008C82.229 6.368 82.453 5.84 82.901 5.424C83.365 4.992 83.957 4.776 84.677 4.776C85.381 4.776 85.957 4.992 86.405 5.424C86.869 5.84 87.101 6.368 87.101 7.008C87.101 7.632 86.869 8.16 86.405 8.592C85.957 9.008 85.381 9.216 84.677 9.216ZM86.717 10.608V24H82.613V10.608H86.717ZM97.8511 10.464C99.4191 10.464 100.667 10.976 101.595 12C102.539 13.008 103.011 14.4 103.011 16.176V24H98.9311V16.728C98.9311 15.832 98.6991 15.136 98.2351 14.64C97.7711 14.144 97.1471 13.896 96.3631 13.896C95.5791 13.896 94.9551 14.144 94.4911 14.64C94.0271 15.136 93.7951 15.832 93.7951 16.728V24H89.6911V10.608H93.7951V12.384C94.2111 11.792 94.7711 11.328 95.4751 10.992C96.1791 10.64 96.9711 10.464 97.8511 10.464ZM111.959 24.192C110.647 24.192 109.463 23.912 108.407 23.352C107.367 22.792 106.543 21.992 105.935 20.952C105.343 19.912 105.047 18.696 105.047 17.304C105.047 15.928 105.351 14.72 105.959 13.68C106.567 12.624 107.399 11.816 108.455 11.256C109.511 10.696 110.695 10.416 112.007 10.416C113.319 10.416 114.503 10.696 115.559 11.256C116.615 11.816 117.447 12.624 118.055 13.68C118.663 14.72 118.967 15.928 118.967 17.304C118.967 18.68 118.655 19.896 118.031 20.952C117.423 21.992 116.583 22.792 115.511 23.352C114.455 23.912 113.271 24.192 111.959 24.192ZM111.959 20.64C112.743 20.64 113.407 20.352 113.951 19.776C114.511 19.2 114.791 18.376 114.791 17.304C114.791 16.232 114.519 15.408 113.975 14.832C113.447 14.256 112.791 13.968 112.007 13.968C111.207 13.968 110.543 14.256 110.015 14.832C109.487 15.392 109.223 16.216 109.223 17.304C109.223 18.376 109.479 19.2 109.991 19.776C110.519 20.352 111.175 20.64 111.959 20.64ZM127.168 20.16L130.072 10.608H134.44L129.688 24H124.624L119.872 10.608H124.264L127.168 20.16ZM135.352 17.28C135.352 15.904 135.608 14.696 136.12 13.656C136.648 12.616 137.36 11.816 138.256 11.256C139.152 10.696 140.152 10.416 141.256 10.416C142.2 10.416 143.024 10.608 143.728 10.992C144.448 11.376 145 11.88 145.384 12.504V10.608H149.488V24H145.384V22.104C144.984 22.728 144.424 23.232 143.704 23.616C143 24 142.176 24.192 141.232 24.192C140.144 24.192 139.152 23.912 138.256 23.352C137.36 22.776 136.648 21.968 136.12 20.928C135.608 19.872 135.352 18.656 135.352 17.28ZM145.384 17.304C145.384 16.28 145.096 15.472 144.52 14.88C143.96 14.288 143.272 13.992 142.456 13.992C141.64 13.992 140.944 14.288 140.368 14.88C139.808 15.456 139.528 16.256 139.528 17.28C139.528 18.304 139.808 19.12 140.368 19.728C140.944 20.32 141.64 20.616 142.456 20.616C143.272 20.616 143.96 20.32 144.52 19.728C145.096 19.136 145.384 18.328 145.384 17.304ZM145.696 7.272L139.912 9.696V6.864L145.696 4.08V7.272ZM205.592 10.464C207.256 10.464 208.576 10.968 209.552 11.976C210.544 12.984 211.04 14.384 211.04 16.176V24H206.96V16.728C206.96 15.864 206.728 15.2 206.264 14.736C205.816 14.256 205.192 14.016 204.392 14.016C203.592 14.016 202.96 14.256 202.496 14.736C202.048 15.2 201.824 15.864 201.824 16.728V24H197.744V16.728C197.744 15.864 197.512 15.2 197.048 14.736C196.6 14.256 195.976 14.016 195.176 14.016C194.376 14.016 193.744 14.256 193.28 14.736C192.832 15.2 192.608 15.864 192.608 16.728V24H188.504V10.608H192.608V12.288C193.024 11.728 193.568 11.288 194.24 10.968C194.912 10.632 195.672 10.464 196.52 10.464C197.528 10.464 198.424 10.68 199.208 11.112C200.008 11.544 200.632 12.16 201.08 12.96C201.544 12.224 202.176 11.624 202.976 11.16C203.776 10.696 204.648 10.464 205.592 10.464ZM213.094 17.28C213.094 15.904 213.35 14.696 213.862 13.656C214.39 12.616 215.102 11.816 215.998 11.256C216.894 10.696 217.894 10.416 218.998 10.416C219.942 10.416 220.766 10.608 221.47 10.992C222.19 11.376 222.742 11.88 223.126 12.504V10.608H227.23V24H223.126V22.104C222.726 22.728 222.166 23.232 221.446 23.616C220.742 24 219.918 24.192 218.974 24.192C217.886 24.192 216.894 23.912 215.998 23.352C215.102 22.776 214.39 21.968 213.862 20.928C213.35 19.872 213.094 18.656 213.094 17.28ZM223.126 17.304C223.126 16.28 222.838 15.472 222.262 14.88C221.702 14.288 221.014 13.992 220.198 13.992C219.382 13.992 218.686 14.288 218.11 14.88C217.55 15.456 217.27 16.256 217.27 17.28C217.27 18.304 217.55 19.12 218.11 19.728C218.686 20.32 219.382 20.616 220.198 20.616C221.014 20.616 221.702 20.32 222.262 19.728C222.838 19.136 223.126 18.328 223.126 17.304ZM238.359 10.464C239.927 10.464 241.175 10.976 242.103 12C243.047 13.008 243.519 14.4 243.519 16.176V24H239.439V16.728C239.439 15.832 239.207 15.136 238.743 14.64C238.279 14.144 237.655 13.896 236.871 13.896C236.087 13.896 235.463 14.144 234.999 14.64C234.535 15.136 234.303 15.832 234.303 16.728V24H230.199V10.608H234.303V12.384C234.719 11.792 235.279 11.328 235.983 10.992C236.687 10.64 237.479 10.464 238.359 10.464ZM250.211 20.616H256.019V24H245.627V20.736L251.195 13.992H245.675V10.608H255.899V13.872L250.211 20.616ZM254.651 7.8L250.931 9.696L247.211 7.8V4.968L250.931 7.056L254.651 4.968V7.8ZM270.901 17.088C270.901 17.472 270.877 17.872 270.829 18.288H261.541C261.605 19.12 261.869 19.76 262.333 20.208C262.813 20.64 263.397 20.856 264.085 20.856C265.109 20.856 265.821 20.424 266.221 19.56H270.589C270.365 20.44 269.957 21.232 269.365 21.936C268.789 22.64 268.061 23.192 267.181 23.592C266.301 23.992 265.317 24.192 264.229 24.192C262.917 24.192 261.749 23.912 260.725 23.352C259.701 22.792 258.901 21.992 258.325 20.952C257.749 19.912 257.461 18.696 257.461 17.304C257.461 15.912 257.741 14.696 258.301 13.656C258.877 12.616 259.677 11.816 260.701 11.256C261.725 10.696 262.901 10.416 264.229 10.416C265.525 10.416 266.677 10.688 267.685 11.232C268.693 11.776 269.477 12.552 270.037 13.56C270.613 14.568 270.901 15.744 270.901 17.088ZM266.701 16.008C266.701 15.304 266.461 14.744 265.981 14.328C265.501 13.912 264.901 13.704 264.181 13.704C263.493 13.704 262.909 13.904 262.429 14.304C261.965 14.704 261.677 15.272 261.565 16.008H266.701ZM277.17 6.24V24H273.066V6.24H277.17ZM288.328 24L284.248 18.384V24H280.144V6.24H284.248V16.056L288.304 10.608H293.368L287.8 17.328L293.416 24H288.328ZM294.164 17.28C294.164 15.904 294.42 14.696 294.932 13.656C295.46 12.616 296.172 11.816 297.068 11.256C297.964 10.696 298.964 10.416 300.068 10.416C301.012 10.416 301.836 10.608 302.54 10.992C303.26 11.376 303.812 11.88 304.196 12.504V10.608H308.3V24H304.196V22.104C303.796 22.728 303.236 23.232 302.516 23.616C301.812 24 300.988 24.192 300.044 24.192C298.956 24.192 297.964 23.912 297.068 23.352C296.172 22.776 295.46 21.968 294.932 20.928C294.42 19.872 294.164 18.656 294.164 17.28ZM304.196 17.304C304.196 16.28 303.908 15.472 303.332 14.88C302.772 14.288 302.084 13.992 301.268 13.992C300.452 13.992 299.756 14.288 299.18 14.88C298.62 15.456 298.34 16.256 298.34 17.28C298.34 18.304 298.62 19.12 299.18 19.728C299.756 20.32 300.452 20.616 301.268 20.616C302.084 20.616 302.772 20.32 303.332 19.728C303.908 19.136 304.196 18.328 304.196 17.304ZM326.675 13.872V17.28H316.115V13.872H326.675ZM348.203 12.576C348.203 13.552 347.979 14.448 347.531 15.264C347.083 16.064 346.395 16.712 345.467 17.208C344.539 17.704 343.387 17.952 342.011 17.952H339.467V24H335.363V7.152H342.011C343.355 7.152 344.491 7.384 345.419 7.848C346.347 8.312 347.043 8.952 347.507 9.768C347.971 10.584 348.203 11.52 348.203 12.576ZM341.699 14.688C342.483 14.688 343.067 14.504 343.451 14.136C343.835 13.768 344.027 13.248 344.027 12.576C344.027 11.904 343.835 11.384 343.451 11.016C343.067 10.648 342.483 10.464 341.699 10.464H339.467V14.688H341.699ZM354.444 6.24V24H350.34V6.24H354.444ZM361.258 20.616H367.066V24H356.674V20.736L362.242 13.992H356.722V10.608H366.946V13.872L361.258 20.616ZM381.948 17.088C381.948 17.472 381.924 17.872 381.876 18.288H372.588C372.652 19.12 372.916 19.76 373.38 20.208C373.86 20.64 374.444 20.856 375.132 20.856C376.156 20.856 376.868 20.424 377.268 19.56H381.636C381.412 20.44 381.004 21.232 380.412 21.936C379.836 22.64 379.108 23.192 378.228 23.592C377.348 23.992 376.364 24.192 375.276 24.192C373.964 24.192 372.796 23.912 371.772 23.352C370.748 22.792 369.948 21.992 369.372 20.952C368.796 19.912 368.508 18.696 368.508 17.304C368.508 15.912 368.788 14.696 369.348 13.656C369.924 12.616 370.724 11.816 371.748 11.256C372.772 10.696 373.948 10.416 375.276 10.416C376.572 10.416 377.724 10.688 378.732 11.232C379.74 11.776 380.524 12.552 381.084 13.56C381.66 14.568 381.948 15.744 381.948 17.088ZM377.748 16.008C377.748 15.304 377.508 14.744 377.028 14.328C376.548 13.912 375.948 13.704 375.228 13.704C374.54 13.704 373.956 13.904 373.476 14.304C373.012 14.704 372.724 15.272 372.612 16.008H377.748ZM392.273 10.464C393.841 10.464 395.089 10.976 396.017 12C396.961 13.008 397.433 14.4 397.433 16.176V24H393.353V16.728C393.353 15.832 393.121 15.136 392.657 14.64C392.193 14.144 391.569 13.896 390.785 13.896C390.001 13.896 389.377 14.144 388.913 14.64C388.449 15.136 388.217 15.832 388.217 16.728V24H384.113V10.608H388.217V12.384C388.633 11.792 389.193 11.328 389.897 10.992C390.601 10.64 391.393 10.464 392.273 10.464ZM395.009 7.8L391.289 9.696L387.569 7.8V4.968L391.289 7.056L395.009 4.968V7.8ZM404.555 17.28C404.555 15.904 404.811 14.696 405.323 13.656C405.851 12.616 406.563 11.816 407.459 11.256C408.355 10.696 409.355 10.416 410.459 10.416C411.403 10.416 412.227 10.608 412.931 10.992C413.651 11.376 414.203 11.88 414.587 12.504V10.608H418.691V24H414.587V22.104C414.187 22.728 413.627 23.232 412.907 23.616C412.203 24 411.379 24.192 410.435 24.192C409.347 24.192 408.355 23.912 407.459 23.352C406.563 22.776 405.851 21.968 405.323 20.928C404.811 19.872 404.555 18.656 404.555 17.28ZM414.587 17.304C414.587 16.28 414.299 15.472 413.723 14.88C413.163 14.288 412.475 13.992 411.659 13.992C410.843 13.992 410.147 14.288 409.571 14.88C409.011 15.456 408.731 16.256 408.731 17.28C408.731 18.304 409.011 19.12 409.571 19.728C410.147 20.32 410.843 20.616 411.659 20.616C412.475 20.616 413.163 20.32 413.723 19.728C414.299 19.136 414.587 18.328 414.587 17.304ZM432.842 24.192C431.53 24.192 430.346 23.912 429.29 23.352C428.25 22.792 427.426 21.992 426.818 20.952C426.226 19.912 425.93 18.696 425.93 17.304C425.93 15.928 426.234 14.72 426.842 13.68C427.45 12.624 428.282 11.816 429.338 11.256C430.394 10.696 431.578 10.416 432.89 10.416C434.202 10.416 435.386 10.696 436.442 11.256C437.498 11.816 438.33 12.624 438.938 13.68C439.546 14.72 439.85 15.928 439.85 17.304C439.85 18.68 439.538 19.896 438.914 20.952C438.306 21.992 437.466 22.792 436.394 23.352C435.338 23.912 434.154 24.192 432.842 24.192ZM432.842 20.64C433.626 20.64 434.29 20.352 434.834 19.776C435.394 19.2 435.674 18.376 435.674 17.304C435.674 16.232 435.402 15.408 434.858 14.832C434.33 14.256 433.674 13.968 432.89 13.968C432.09 13.968 431.426 14.256 430.898 14.832C430.37 15.392 430.106 16.216 430.106 17.304C430.106 18.376 430.362 19.2 430.874 19.776C431.402 20.352 432.058 20.64 432.842 20.64ZM450.211 24L446.131 18.384V24H442.027V6.24H446.131V16.056L450.187 10.608H455.251L449.683 17.328L455.299 24H450.211ZM462.959 24.192C461.647 24.192 460.463 23.912 459.407 23.352C458.367 22.792 457.543 21.992 456.935 20.952C456.343 19.912 456.047 18.696 456.047 17.304C456.047 15.928 456.351 14.72 456.959 13.68C457.567 12.624 458.399 11.816 459.455 11.256C460.511 10.696 461.695 10.416 463.007 10.416C464.319 10.416 465.503 10.696 466.559 11.256C467.615 11.816 468.447 12.624 469.055 13.68C469.663 14.72 469.967 15.928 469.967 17.304C469.967 18.68 469.655 19.896 469.031 20.952C468.423 21.992 467.583 22.792 466.511 23.352C465.455 23.912 464.271 24.192 462.959 24.192ZM462.959 20.64C463.743 20.64 464.407 20.352 464.951 19.776C465.511 19.2 465.791 18.376 465.791 17.304C465.791 16.232 465.519 15.408 464.975 14.832C464.447 14.256 463.791 13.968 463.007 13.968C462.207 13.968 461.543 14.256 461.015 14.832C460.487 15.392 460.223 16.216 460.223 17.304C460.223 18.376 460.479 19.2 460.991 19.776C461.519 20.352 462.175 20.64 462.959 20.64ZM476.248 6.24V24H472.144V6.24H476.248ZM483.638 10.608V24H479.534V10.608H483.638ZM484.382 7.272L478.598 9.696V6.864L484.382 4.08V7.272Z" fill="#1A1C17"/>
</svg>
