<svg width="206" height="17" viewBox="0 0 206 17" fill="none" xmlns="http://www.w3.org/2000/svg">
<path d="M7.3332 7.33332H8.66653V2.66666C8.66653 2.47777 8.60253 2.31932 8.47453 2.19132C8.34653 2.06332 8.18831 1.99955 7.99987 1.99999C7.81098 1.99999 7.65253 2.06399 7.52453 2.19199C7.39653 2.31999 7.33276 2.47821 7.3332 2.66666V7.33332ZM3.3332 9.99999H12.6665V8.66666H3.3332V9.99999ZM2.36653 14H3.99987V12.6667C3.99987 12.4778 4.06387 12.3193 4.19187 12.1913C4.31987 12.0633 4.47809 11.9995 4.66653 12C4.85542 12 5.01387 12.064 5.14187 12.192C5.26987 12.32 5.33364 12.4782 5.3332 12.6667V14H7.3332V12.6667C7.3332 12.4778 7.3972 12.3193 7.5252 12.1913C7.6532 12.0633 7.81142 11.9995 7.99987 12C8.18876 12 8.3472 12.064 8.4752 12.192C8.6032 12.32 8.66698 12.4782 8.66653 12.6667V14H10.6665V12.6667C10.6665 12.4778 10.7305 12.3193 10.8585 12.1913C10.9865 12.0633 11.1448 11.9995 11.3332 12C11.5221 12 11.6805 12.064 11.8085 12.192C11.9365 12.32 12.0003 12.4782 11.9999 12.6667V14H13.6332L12.9665 11.3333H3.0332L2.36653 14ZM13.6332 15.3333H2.36653C1.9332 15.3333 1.5832 15.1611 1.31653 14.8167C1.04987 14.4722 0.972088 14.0889 1.0832 13.6667L1.99987 9.99999V8.66666C1.99987 8.29999 2.13053 7.98599 2.39187 7.72466C2.6532 7.46332 2.96698 7.33288 3.3332 7.33332H5.99987V2.66666C5.99987 2.1111 6.19431 1.63888 6.5832 1.24999C6.97209 0.861101 7.44431 0.666656 7.99987 0.666656C8.55542 0.666656 9.02764 0.861101 9.41653 1.24999C9.80542 1.63888 9.99987 2.1111 9.99987 2.66666V7.33332H12.6665C13.0332 7.33332 13.3472 7.46399 13.6085 7.72532C13.8699 7.98666 14.0003 8.30043 13.9999 8.66666V9.99999L14.9165 13.6667C15.061 14.0889 14.997 14.4722 14.7245 14.8167C14.4521 15.1611 14.0883 15.3333 13.6332 15.3333Z" fill="#BA64E3"/>
<path d="M31.72 4.768V16H28.984V11.376H24.728V16H21.992V4.768H24.728V9.168H28.984V4.768H31.72Z" fill="#BA64E3"/>
<path d="M43.7431 16H41.0071L36.4311 9.072V16H33.6951V4.768H36.4311L41.0071 11.728V4.768H43.7431V16ZM55.997 9.248V11.52H48.957V9.248H55.997ZM70.3489 8.384C70.3489 9.03467 70.1995 9.632 69.9009 10.176C69.6022 10.7093 69.1435 11.1413 68.5249 11.472C67.9062 11.8027 67.1382 11.968 66.2209 11.968H64.5249V16H61.7889V4.768H66.2209C67.1169 4.768 67.8742 4.92267 68.4929 5.232C69.1115 5.54133 69.5755 5.968 69.8849 6.512C70.1942 7.056 70.3489 7.68 70.3489 8.384ZM66.0129 9.792C66.5355 9.792 66.9249 9.66933 67.1809 9.424C67.4369 9.17867 67.5649 8.832 67.5649 8.384C67.5649 7.936 67.4369 7.58933 67.1809 7.344C66.9249 7.09867 66.5355 6.976 66.0129 6.976H64.5249V9.792H66.0129ZM74.5093 4.16V16H71.7733V4.16H74.5093ZM79.052 13.744H82.924V16H75.996V13.824L79.708 9.328H76.028V7.072H82.844V9.248L79.052 13.744ZM92.8455 11.392C92.8455 11.648 92.8295 11.9147 92.7975 12.192H86.6055C86.6482 12.7467 86.8242 13.1733 87.1335 13.472C87.4535 13.76 87.8428 13.904 88.3015 13.904C88.9842 13.904 89.4588 13.616 89.7255 13.04H92.6375C92.4882 13.6267 92.2162 14.1547 91.8215 14.624C91.4375 15.0933 90.9522 15.4613 90.3655 15.728C89.7788 15.9947 89.1228 16.128 88.3975 16.128C87.5228 16.128 86.7442 15.9413 86.0615 15.568C85.3788 15.1947 84.8455 14.6613 84.4615 13.968C84.0775 13.2747 83.8855 12.464 83.8855 11.536C83.8855 10.608 84.0722 9.79733 84.4455 9.104C84.8295 8.41067 85.3628 7.87733 86.0455 7.504C86.7282 7.13067 87.5122 6.944 88.3975 6.944C89.2615 6.944 90.0295 7.12533 90.7015 7.488C91.3735 7.85067 91.8962 8.368 92.2695 9.04C92.6535 9.712 92.8455 10.496 92.8455 11.392ZM90.0455 10.672C90.0455 10.2027 89.8855 9.82933 89.5655 9.552C89.2455 9.27467 88.8455 9.136 88.3655 9.136C87.9068 9.136 87.5175 9.26933 87.1975 9.536C86.8882 9.80267 86.6962 10.1813 86.6215 10.672H90.0455ZM99.7289 6.976C100.774 6.976 101.606 7.31733 102.225 8C102.854 8.672 103.169 9.6 103.169 10.784V16H100.449V11.152C100.449 10.5547 100.294 10.0907 99.9849 9.76C99.6755 9.42933 99.2595 9.264 98.7369 9.264C98.2142 9.264 97.7982 9.42933 97.4889 9.76C97.1795 10.0907 97.0249 10.5547 97.0249 11.152V16H94.2889V7.072H97.0249V8.256C97.3022 7.86133 97.6755 7.552 98.1449 7.328C98.6142 7.09333 99.1422 6.976 99.7289 6.976ZM101.553 5.2L99.0729 6.464L96.5929 5.2V3.312L99.0729 4.704L101.553 3.312V5.2ZM107.917 11.52C107.917 10.6027 108.087 9.79733 108.429 9.104C108.781 8.41067 109.255 7.87733 109.853 7.504C110.45 7.13067 111.117 6.944 111.853 6.944C112.482 6.944 113.031 7.072 113.501 7.328C113.981 7.584 114.349 7.92 114.605 8.336V7.072H117.341V16H114.605V14.736C114.338 15.152 113.965 15.488 113.485 15.744C113.015 16 112.466 16.128 111.837 16.128C111.111 16.128 110.45 15.9413 109.853 15.568C109.255 15.184 108.781 14.6453 108.429 13.952C108.087 13.248 107.917 12.4373 107.917 11.52ZM114.605 11.536C114.605 10.8533 114.413 10.3147 114.029 9.92C113.655 9.52533 113.197 9.328 112.653 9.328C112.109 9.328 111.645 9.52533 111.261 9.92C110.887 10.304 110.701 10.8373 110.701 11.52C110.701 12.2027 110.887 12.7467 111.261 13.152C111.645 13.5467 112.109 13.744 112.653 13.744C113.197 13.744 113.655 13.5467 114.029 13.152C114.413 12.7573 114.605 12.2187 114.605 11.536ZM126.775 16.128C125.9 16.128 125.111 15.9413 124.407 15.568C123.713 15.1947 123.164 14.6613 122.759 13.968C122.364 13.2747 122.167 12.464 122.167 11.536C122.167 10.6187 122.369 9.81333 122.775 9.12C123.18 8.416 123.735 7.87733 124.439 7.504C125.143 7.13067 125.932 6.944 126.807 6.944C127.681 6.944 128.471 7.13067 129.175 7.504C129.879 7.87733 130.433 8.416 130.839 9.12C131.244 9.81333 131.447 10.6187 131.447 11.536C131.447 12.4533 131.239 13.264 130.823 13.968C130.417 14.6613 129.857 15.1947 129.143 15.568C128.439 15.9413 127.649 16.128 126.775 16.128ZM126.775 13.76C127.297 13.76 127.74 13.568 128.103 13.184C128.476 12.8 128.663 12.2507 128.663 11.536C128.663 10.8213 128.481 10.272 128.119 9.888C127.767 9.504 127.329 9.312 126.807 9.312C126.273 9.312 125.831 9.504 125.479 9.888C125.127 10.2613 124.951 10.8107 124.951 11.536C124.951 12.2507 125.121 12.8 125.463 13.184C125.815 13.568 126.252 13.76 126.775 13.76ZM138.354 16L135.634 12.256V16H132.898V4.16H135.634V10.704L138.338 7.072H141.714L138.002 11.552L141.746 16H138.354ZM146.853 16.128C145.978 16.128 145.189 15.9413 144.485 15.568C143.792 15.1947 143.242 14.6613 142.837 13.968C142.442 13.2747 142.245 12.464 142.245 11.536C142.245 10.6187 142.448 9.81333 142.853 9.12C143.258 8.416 143.813 7.87733 144.517 7.504C145.221 7.13067 146.01 6.944 146.885 6.944C147.76 6.944 148.549 7.13067 149.253 7.504C149.957 7.87733 150.512 8.416 150.917 9.12C151.322 9.81333 151.525 10.6187 151.525 11.536C151.525 12.4533 151.317 13.264 150.901 13.968C150.496 14.6613 149.936 15.1947 149.221 15.568C148.517 15.9413 147.728 16.128 146.853 16.128ZM146.853 13.76C147.376 13.76 147.818 13.568 148.181 13.184C148.554 12.8 148.741 12.2507 148.741 11.536C148.741 10.8213 148.56 10.272 148.197 9.888C147.845 9.504 147.408 9.312 146.885 9.312C146.352 9.312 145.909 9.504 145.557 9.888C145.205 10.2613 145.029 10.8107 145.029 11.536C145.029 12.2507 145.2 12.8 145.541 13.184C145.893 13.568 146.33 13.76 146.853 13.76ZM155.712 4.16V16H152.976V4.16H155.712ZM160.639 7.072V16H157.903V7.072H160.639ZM161.135 4.848L157.279 6.464V4.576L161.135 2.72V4.848Z" fill="#1A1C17"/>
</svg>
